<?xml version="1.0" encoding="utf-8"?>
<!-- Generator: Adobe Illustrator 27.7.0, SVG Export Plug-In . SVG Version: 6.00 Build 0)  -->
<svg version="1.1" xmlns="http://www.w3.org/2000/svg" xmlns:xlink="http://www.w3.org/1999/xlink" x="0px" y="0px"
	 viewBox="0 0 342.99 178.58" style="enable-background:new 0 0 342.99 178.58;" xml:space="preserve">
<style type="text/css">
	.st0{fill:#009CDE;}
	.st1{fill:#888B8D;}
	.st2{fill:#3F9C35;}
	.st3{fill:#FFFFFF;}
	.st4{fill:none;}
</style>
<g id="Artwork">
	<g>
		<rect x="134.65" y="29.76" class="st0" width="178.58" height="29.76"/>
		<rect x="29.76" y="29.76" class="st1" width="22.68" height="29.76"/>
		<rect x="65.2" y="29.76" class="st2" width="56.69" height="29.76"/>
		<path class="st3" d="M183.75,104.04c0-7.01-2.38-12.65-6.88-16.26c-4.63-3.68-10.01-4.56-17.98-4.56h-24.25v64.64h13.15v-53h11.58
			c3.27,0,5.65,0.41,7.22,1.36c2.31,1.36,3.68,3.88,3.68,7.82c0,6.74-4.15,9.12-9.6,9.12h-8.76v11.7h5.22l13.68,23H186l-15.19-25.17
			C179.66,120.1,183.75,112.75,183.75,104.04z"/>
		<path class="st3" d="M223.6,111.26c-9.33-3.2-19.82-3.61-19.82-10.68c0-4.55,4.16-6.66,10.08-6.66c5.79,0,10.97,0.54,19.68,2.86
			V85.06c-7.49-2.11-12.94-2.86-20.02-2.86c-12.81,0-23.64,5.1-23.64,18.1c0,10.27,5.1,15.44,15.19,18.91
			c8.99,3.07,19.14,3.68,19.14,10.62c0,5.18-5.04,7.35-12.32,7.35c-7.09,0-11.51-0.55-20.57-3v11.77
			c7.56,2.25,13.89,2.87,21.25,2.87c16.07,0,25.48-7.01,25.48-20C238.04,118.53,231.3,113.91,223.6,111.26z"/>
		<polygon class="st3" points="296.06,83.22 272.98,147.86 285.51,147.86 300.15,106.76 300.36,106.76 300.36,147.86 313.23,147.86 
			313.23,83.22 		"/>
		<polygon class="st3" points="277.45,123.45 262.42,83.22 244.98,83.22 244.98,147.86 257.72,147.86 257.72,106.76 257.93,106.76 
			270.96,141.64 		"/>
	</g>
</g>
<g id="Clear_Space">
	<g>
		<rect x="256.54" class="st4" width="56.69" height="29.76"/>
		<rect x="313.23" y="29.76" class="st4" width="29.76" height="56.69"/>
		<rect y="29.76" class="st4" width="29.76" height="56.69"/>
		<rect x="189.1" y="148.82" class="st4" width="56.69" height="29.76"/>
	</g>
</g>
</svg>
